# xmcd CD database file
#
# Track frame offsets:
#	150
#	29184
#	55354
#	79235
#	115136
#	129581
#	160863
#	186772
#	213783
#	253361
#
# Disc length: 3689 seconds
#
# Revision: 0
# Processed by: cddbd v1.5PL3 Copyright (c) Steve Scherf et al.
# Submitted via: CDex 1.51
#
DISCID=910e670a
DTITLE=Ganga Giri - Tribe Vibe
DYEAR=2003
DGENRE=New Age
TTITLE0=Ganga Giri - Nungabunda
TTITLE1=Ganga Giri - Carawonga
TTITLE2=Ganga Giri - In the Jungle
TTITLE3=Ganga Giri - The Crow
TTITLE4=Ganga Giri - Big Halat
TTITLE5=Ganga Giri - Afrodisiac
TTITLE6=Ganga Giri - Bushtucker Man
TTITLE7=Ganga Giri - Spirit Remix
TTITLE8=Ganga Giri - Rainbow River
TTITLE9=Ganga Giri - Night Flight
EXTD=YEAR: 2003
EXTT0=
EXTT1=
EXTT2=
EXTT3=
EXTT4=
EXTT5=
EXTT6=
EXTT7=
EXTT8=
EXTT9=
PLAYORDER=
